<?xml version="1.0" encoding="UTF-8" standalone="no"?>
<svg
   xmlns:dc="http://purl.org/dc/elements/1.1/"
   xmlns:cc="http://creativecommons.org/ns#"
   xmlns:rdf="http://www.w3.org/1999/02/22-rdf-syntax-ns#"
   xmlns:svg="http://www.w3.org/2000/svg"
   xmlns="http://www.w3.org/2000/svg"
   xmlns:sodipodi="http://sodipodi.sourceforge.net/DTD/sodipodi-0.dtd"
   xmlns:inkscape="http://www.inkscape.org/namespaces/inkscape"
   id="Calque_1"
   data-name="Calque 1"
   viewBox="0 0 60.000002 69.999999"
   version="1.1"
   sodipodi:docname="marker-default.svg"
   inkscape:version="0.92.3 (2405546, 2018-03-11)"
   width="60"
   height="70"
   inkscape:export-filename="/var/www/html/argonne/img/marker-default.png"
   inkscape:export-xdpi="95.599998"
   inkscape:export-ydpi="95.599998">
  <metadata
     id="metadata17">
    <rdf:RDF>
      <cc:Work
         rdf:about="">
        <dc:format>image/svg+xml</dc:format>
        <dc:type
           rdf:resource="http://purl.org/dc/dcmitype/StillImage" />
        <dc:title>marker-hotel</dc:title>
      </cc:Work>
    </rdf:RDF>
  </metadata>
  <sodipodi:namedview
     pagecolor="#ffffff"
     bordercolor="#666666"
     borderopacity="1"
     objecttolerance="10"
     gridtolerance="10"
     guidetolerance="10"
     inkscape:pageopacity="0"
     inkscape:pageshadow="2"
     inkscape:window-width="1920"
     inkscape:window-height="1052"
     id="namedview15"
     showgrid="false"
     inkscape:zoom="1.3906434"
     inkscape:cx="8.1308864"
     inkscape:cy="12.185427"
     inkscape:window-x="1920"
     inkscape:window-y="0"
     inkscape:window-maximized="1"
     inkscape:current-layer="Calque_1"
     fit-margin-top="0"
     fit-margin-left="0"
     fit-margin-right="0"
     fit-margin-bottom="0" />
  <defs
     id="defs4">
    <style
       id="style2">.cls-1{fill:#ffc76b;}.cls-2{fill:#fff;}.cls-3{opacity:0.3;isolation:isolate;}</style>
    <filter
       style="color-interpolation-filters:sRGB"
       inkscape:label="Feather"
       id="filter1503">
      <feGaussianBlur
         stdDeviation="0.2"
         result="blur"
         id="feGaussianBlur1495" />
      <feComposite
         in="SourceGraphic"
         in2="blur"
         operator="atop"
         result="composite1"
         id="feComposite1497" />
      <feComposite
         in2="composite1"
         operator="in"
         result="composite2"
         id="feComposite1499" />
      <feComposite
         in2="composite2"
         operator="in"
         result="composite3"
         id="feComposite1501" />
    </filter>
    <clipPath
       clipPathUnits="userSpaceOnUse"
       id="clipPath1577">
      <rect
         style="opacity:0.50499998;fill:#800000;fill-opacity:1;stroke:none;stroke-width:0.71160448;stroke-linecap:square;stroke-miterlimit:4;stroke-dasharray:1.42320893, 4.26962679;stroke-dashoffset:0;stroke-opacity:1"
         id="rect1579"
         width="28.598495"
         height="18.001732"
         x="-2.5643573"
         y="-30.377556"
         transform="scale(1,-1)" />
    </clipPath>
    <clipPath
       clipPathUnits="userSpaceOnUse"
       id="clipPath1577-3">
      <rect
         style="opacity:0.50499998;fill:#800000;fill-opacity:1;stroke:none;stroke-width:0.71160448;stroke-linecap:square;stroke-miterlimit:4;stroke-dasharray:1.42320893, 4.26962679;stroke-dashoffset:0;stroke-opacity:1"
         id="rect1579-5"
         width="28.598495"
         height="18.001732"
         x="-2.5643573"
         y="-30.377556"
         transform="scale(1,-1)" />
    </clipPath>
  </defs>
  <title
     id="title6">marker-hotel</title>
  <path
     class="cls-1"
     d="M 10.937668,49.394015 9.0626857,47.57584 A 28.343499,27.484747 0 0 1 1.8752494,29.09106 28.343499,27.484747 0 0 1 9.0626857,10.606279 C 9.6876806,10.000221 10.312675,9.091134 10.937668,8.4850751 a 28.874744,27.999897 0 0 1 38.124663,0 l 1.874984,1.8181749 a 28.343499,27.484747 0 0 1 7.187436,18.484781 28.343499,27.484747 0 0 1 -7.187436,18.48478 L 49.062331,49.090986 30,67.878795 Z"
     id="path8"
     inkscape:connector-curvature="0"
     style="fill:#d54363;stroke-width:3.07726812;fill-opacity:1"
     inkscape:export-xdpi="96"
     inkscape:export-ydpi="96" />
  <path
     class="cls-2"
     d="M 30,3.0305498 A 27.218509,26.393842 0 0 1 48.12484,9.697192 l 1.874983,1.818175 A 26.093519,25.302937 0 0 1 56.874762,29.09106 27.218509,26.393842 0 0 1 49.999823,46.666753 L 48.12484,48.484928 30,65.757591 11.87516,48.181898 10.000178,46.363722 A 26.093519,25.302937 0 0 1 3.1252383,28.788031 27.218509,26.393842 0 0 1 10.000178,11.212339 8.2811767,8.0302735 0 0 0 11.87516,9.697192 27.218509,26.393842 0 0 1 30,3.0305498 M 30,2.5796399e-4 A 29.187241,28.302926 0 0 0 10.000178,7.5759875 7.3124353,7.0908831 0 0 0 7.8126967,9.697192 29.780986,28.878681 0 0 0 2.6602156e-4,29.09106 29.187241,28.302926 0 0 0 7.8126967,48.484928 14.437372,13.999948 0 0 0 10.000178,50.606133 L 27.81252,67.878795 30,70 32.18748,67.878795 49.999823,50.606133 A 14.437372,13.999948 0 0 0 52.187304,48.484928 29.780986,28.878681 0 0 0 59.999734,29.09106 29.187241,28.302926 0 0 0 52.187304,9.697192 14.437372,13.999948 0 0 0 49.999823,7.5759875 29.187241,28.302926 0 0 0 30,2.5796399e-4 Z"
     id="path10"
     inkscape:connector-curvature="0"
     style="fill:#fffffc;stroke-width:3.07726812;fill-opacity:1"
     inkscape:export-xdpi="96"
     inkscape:export-ydpi="96" />
  <ellipse
     style="opacity:0.248;fill:#000000;fill-opacity:1;stroke:none;stroke-width:1.48786616;stroke-linecap:square;stroke-miterlimit:4;stroke-dasharray:2.97573248, 8.92719744999999953;stroke-dashoffset:0;stroke-opacity:1"
     id="path833"
     cx="30"
     cy="28.697536"
     rx="13.98305"
     ry="13.220339" />
</svg>
